<svg xmlns="http://www.w3.org/2000/svg" viewBox="0 0 600 480">
  <rect width="600" height="480" fill="#ffffff"/>
  <rect x="145" y="72" width="172" height="330" rx="38" fill="#eee9de" stroke="#c9c4bb" stroke-width="5"/>
  <circle cx="185" cy="122" r="23" fill="#111"/>
  <circle cx="245" cy="122" r="23" fill="#111"/>
  <circle cx="185" cy="181" r="23" fill="#111"/>
  <circle cx="246" cy="181" r="13" fill="#222"/>
  <path d="M230 268c21-33 61-30 78 3-19 28-62 29-78-3z" fill="#d2c9bd"/>
  <rect x="270" y="74" width="184" height="332" rx="38" fill="#151515"/>
  <rect x="285" y="90" width="154" height="300" rx="28" fill="#202020"/>
  <path d="M292 292c65-124 82-144 140-194v292H292z" fill="#d7d7d7" opacity=".9"/>
  <path d="M296 140c60 88 97 87 138 40v-78H296z" fill="#9d9d9d" opacity=".7"/>
  <rect x="336" y="92" width="66" height="17" rx="8" fill="#050505"/>
</svg>
